<svg xmlns="http://www.w3.org/2000/svg" viewBox="0 0 128 128">
  <defs>
    <linearGradient id="g" x1="0%" y1="0%" x2="100%" y2="100%">
      <stop offset="0%" style="stop-color:#004bca"/>
      <stop offset="100%" style="stop-color:#0061ff"/>
    </linearGradient>
  </defs>
  <rect width="128" height="128" rx="28" fill="url(#g)"/>
  <g transform="translate(24,18) scale(3.4)" fill="none" stroke="#fff" stroke-width="2" stroke-linecap="round" stroke-linejoin="round">
    <path d="M4.5 16.5c-1.5 1.5-3 5-3 5s3.5-1.5 5-3c.9-.9.9-2.4 0-3.3-.9-.9-2.4-.9-3.3 0z"/>
    <path d="M14.5 2.5S13 6 10 9L8.5 10.5l5 5L15 14c3-3 6.5-4.5 6.5-4.5s1-5.5-2.5-9-9-2.5-9-2.5z"/>
    <circle cx="17" cy="7" r="1.2" fill="#fff" stroke="none"/>
    <path d="M13.5 15.5l5 5"/>
    <path d="M11 18l1 4 3-3"/>
    <path d="M6 13l-4 1 3 3"/>
  </g>
</svg>
